<svg width="30" height="32" viewBox="0 0 30 32" fill="none" xmlns="http://www.w3.org/2000/svg">
<path d="M4.25781 10.9453C4.65104 10.9453 5.02344 10.9805 5.375 11.0508C5.72656 11.1185 6.03255 11.2148 6.29297 11.3398C6.55599 11.4648 6.76432 11.6146 6.91797 11.7891C7.07161 11.9609 7.14844 12.151 7.14844 12.3594V13.0469H6.11719V12.6641C6.11719 12.5521 6.07422 12.4453 5.98828 12.3438C5.90234 12.2396 5.77865 12.1497 5.61719 12.0742C5.45833 11.9961 5.26432 11.9349 5.03516 11.8906C4.80599 11.8438 4.54688 11.8203 4.25781 11.8203C3.97917 11.8203 3.72526 11.8424 3.49609 11.8867C3.26693 11.9284 3.07031 11.987 2.90625 12.0625C2.74219 12.138 2.61458 12.2279 2.52344 12.332C2.4349 12.4336 2.39062 12.5443 2.39062 12.6641V15.4219C2.39062 15.5365 2.4349 15.6445 2.52344 15.7461C2.61458 15.8477 2.74219 15.9362 2.90625 16.0117C3.07031 16.0846 3.26693 16.1432 3.49609 16.1875C3.72526 16.2292 3.97917 16.25 4.25781 16.25C4.54688 16.25 4.80599 16.2279 5.03516 16.1836C5.26432 16.1367 5.45833 16.0755 5.61719 16C5.77865 15.9245 5.90234 15.8372 5.98828 15.7383C6.07422 15.6367 6.11719 15.5312 6.11719 15.4219V15.0312H7.14844V15.7188C7.14844 15.8568 7.11328 15.9883 7.04297 16.1133C6.97266 16.2357 6.8737 16.349 6.74609 16.4531C6.62109 16.5573 6.47005 16.651 6.29297 16.7344C6.11849 16.8151 5.92318 16.8854 5.70703 16.9453C5.49349 17.0026 5.26432 17.0469 5.01953 17.0781C4.77474 17.1094 4.52083 17.125 4.25781 17.125C3.99479 17.125 3.74089 17.1094 3.49609 17.0781C3.2513 17.0469 3.02083 17.0026 2.80469 16.9453C2.59115 16.8854 2.39583 16.8151 2.21875 16.7344C2.04427 16.651 1.89323 16.5573 1.76562 16.4531C1.64062 16.349 1.54297 16.2357 1.47266 16.1133C1.40234 15.9883 1.36719 15.8568 1.36719 15.7188V12.3594C1.36719 12.2214 1.40234 12.0898 1.47266 11.9648C1.54297 11.8398 1.64062 11.7253 1.76562 11.6211C1.89323 11.5169 2.04427 11.4232 2.21875 11.3398C2.39583 11.2565 2.59115 11.1862 2.80469 11.1289C3.02083 11.069 3.2513 11.0234 3.49609 10.9922C3.74089 10.9609 3.99479 10.9453 4.25781 10.9453ZM11.2341 10.9531C11.4945 10.9531 11.7471 10.9688 11.9919 11C12.2367 11.0312 12.4658 11.0768 12.6794 11.1367C12.8929 11.194 13.0882 11.2643 13.2653 11.3477C13.4424 11.4284 13.5934 11.5208 13.7184 11.625C13.8434 11.7292 13.9411 11.8438 14.0114 11.9688C14.0817 12.0911 14.1169 12.2214 14.1169 12.3594V15.7109C14.1169 15.849 14.0817 15.9805 14.0114 16.1055C13.9411 16.2279 13.8434 16.3411 13.7184 16.4453C13.5934 16.5495 13.4424 16.6432 13.2653 16.7266C13.0882 16.8073 12.8929 16.8776 12.6794 16.9375C12.4658 16.9948 12.2367 17.0391 11.9919 17.0703C11.7471 17.1016 11.4945 17.1172 11.2341 17.1172C10.9736 17.1172 10.721 17.1016 10.4763 17.0703C10.2341 17.0391 10.0062 16.9948 9.79266 16.9375C9.58172 16.8776 9.38771 16.8073 9.21063 16.7266C9.03354 16.6432 8.8812 16.5495 8.75359 16.4453C8.62859 16.3411 8.53094 16.2279 8.46063 16.1055C8.39292 15.9805 8.35906 15.849 8.35906 15.7109V12.3594C8.35906 12.2214 8.39292 12.0911 8.46063 11.9688C8.53094 11.8438 8.62859 11.7292 8.75359 11.625C8.8812 11.5208 9.03354 11.4284 9.21063 11.3477C9.38771 11.2643 9.58172 11.194 9.79266 11.1367C10.0062 11.0768 10.2341 11.0312 10.4763 11C10.721 10.9688 10.9736 10.9531 11.2341 10.9531ZM13.0934 12.6562C13.0934 12.5443 13.0505 12.4388 12.9645 12.3398C12.8786 12.2383 12.7549 12.1497 12.5934 12.0742C12.4346 11.9961 12.2406 11.9349 12.0114 11.8906C11.7822 11.8438 11.5231 11.8203 11.2341 11.8203C10.9554 11.8203 10.7028 11.8424 10.4763 11.8867C10.2497 11.9284 10.0544 11.987 9.89031 12.0625C9.72885 12.138 9.60385 12.2266 9.51531 12.3281C9.42677 12.4297 9.3825 12.5391 9.3825 12.6562V15.4141C9.3825 15.5286 9.42677 15.6367 9.51531 15.7383C9.60385 15.8398 9.72885 15.9284 9.89031 16.0039C10.0544 16.0794 10.2497 16.1393 10.4763 16.1836C10.7028 16.2279 10.9554 16.25 11.2341 16.25C11.5231 16.25 11.7822 16.2279 12.0114 16.1836C12.2406 16.1367 12.4346 16.0742 12.5934 15.9961C12.7549 15.918 12.8786 15.8294 12.9645 15.7305C13.0505 15.6289 13.0934 15.5234 13.0934 15.4141V12.6562ZM17.9369 11.0469C18.3379 11.0469 18.7155 11.082 19.0697 11.1523C19.4239 11.2227 19.7338 11.3203 19.9994 11.4453C20.265 11.5703 20.4746 11.7214 20.6283 11.8984C20.7819 12.0729 20.8588 12.2656 20.8588 12.4766V15.5859C20.8588 15.7969 20.7819 15.9909 20.6283 16.168C20.4746 16.3424 20.265 16.4922 19.9994 16.6172C19.7338 16.7422 19.4239 16.8398 19.0697 16.9102C18.7155 16.9805 18.3379 17.0156 17.9369 17.0156C17.7129 17.0156 17.4838 17.0078 17.2494 16.9922C17.015 16.974 16.7871 16.9518 16.5658 16.9258C16.347 16.8971 16.1413 16.8646 15.9486 16.8281C15.7559 16.7917 15.5905 16.7526 15.4525 16.7109V11.3516C15.5905 11.3099 15.7559 11.2708 15.9486 11.2344C16.1413 11.1979 16.347 11.1667 16.5658 11.1406C16.7871 11.112 17.015 11.0898 17.2494 11.0742C17.4838 11.056 17.7129 11.0469 17.9369 11.0469ZM17.9525 11.9297C17.7155 11.9297 17.5098 11.9375 17.3353 11.9531C17.1608 11.9661 17.0111 11.9844 16.8861 12.0078C16.7611 12.0286 16.6569 12.0521 16.5736 12.0781C16.4929 12.1016 16.4265 12.1224 16.3744 12.1406V15.9219C16.4265 15.9427 16.4929 15.9648 16.5736 15.9883C16.6569 16.0117 16.7611 16.0352 16.8861 16.0586C17.0111 16.0794 17.1608 16.0977 17.3353 16.1133C17.5098 16.1263 17.7155 16.1328 17.9525 16.1328C18.2442 16.1328 18.5059 16.1094 18.7377 16.0625C18.972 16.0156 19.1686 15.9531 19.3275 15.875C19.489 15.7969 19.6127 15.707 19.6986 15.6055C19.7845 15.5013 19.8275 15.3932 19.8275 15.2812V12.7812C19.8275 12.6693 19.7845 12.5625 19.6986 12.4609C19.6127 12.3568 19.489 12.2656 19.3275 12.1875C19.1686 12.1094 18.972 12.0469 18.7377 12C18.5059 11.9531 18.2442 11.9297 17.9525 11.9297ZM24.9131 11.0547C25.3142 11.0547 25.7386 11.069 26.1866 11.0977C26.6371 11.1263 27.1058 11.1823 27.5928 11.2656V12.2578C27.3741 12.1953 27.1527 12.1445 26.9287 12.1055C26.7048 12.0638 26.4795 12.0312 26.253 12.0078C26.029 11.9844 25.8051 11.9674 25.5811 11.957C25.3571 11.9466 25.1345 11.9401 24.9131 11.9375C24.8064 11.9375 24.6879 11.9401 24.5577 11.9453C24.4301 11.9479 24.2933 11.9531 24.1475 11.9609C24.0043 11.9688 23.8532 11.9805 23.6944 11.9961C23.5355 12.0117 23.3741 12.0312 23.21 12.0547V13.4766H26.6241V14.4375H23.21V16.0078C23.4626 16.0443 23.7256 16.0716 23.9991 16.0898C24.2725 16.1081 24.5772 16.1172 24.9131 16.1172C25.3662 16.1172 25.8168 16.0951 26.2647 16.0508C26.7126 16.0065 27.1553 15.9219 27.5928 15.7969V16.7891C27.1058 16.8724 26.6384 16.9284 26.1905 16.957C25.7426 16.9857 25.322 17 24.9287 17C24.5277 17 24.1019 16.9857 23.6514 16.957C23.2035 16.9284 22.7334 16.8724 22.2412 16.7891V11.2656C22.7334 11.1823 23.2035 11.1263 23.6514 11.0977C24.0993 11.069 24.5199 11.0547 24.9131 11.0547Z" fill="#2D3049"/>
<path d="M3.08545 18.8162H3.70557V19.2263H3.08545V21.6335H2.50439V19.2263H2.04541V18.8162H2.50439V17.9666H3.08545V18.8162ZM7.76982 18.8503C7.76982 19.0196 7.76413 19.1962 7.75273 19.3801C7.74134 19.5624 7.71937 19.7504 7.68682 19.9441H7.096C7.11064 19.8888 7.12448 19.8285 7.1375 19.7634C7.14727 19.7081 7.15622 19.6438 7.16436 19.5706C7.17412 19.4957 7.179 19.4167 7.179 19.3337C7.03577 19.337 6.91696 19.3508 6.82256 19.3752C6.72979 19.398 6.65247 19.4257 6.59063 19.4583C6.52878 19.4892 6.47832 19.5209 6.43926 19.5535C6.4002 19.586 6.3652 19.6121 6.33428 19.6316V21.6335H5.70928V19.6169C5.70277 19.5649 5.6873 19.5209 5.66289 19.4851C5.6401 19.4493 5.61569 19.42 5.58965 19.3972C5.56035 19.3695 5.52699 19.3468 5.48955 19.3289L5.74834 18.8503C5.80856 18.8715 5.86797 18.9 5.92656 18.9358C5.97702 18.9667 6.02992 19.0066 6.08525 19.0554C6.14222 19.1026 6.19268 19.1612 6.23662 19.2312C6.31963 19.1742 6.39613 19.1262 6.46611 19.0872C6.5361 19.0465 6.60365 19.0123 6.66875 18.9846C6.73548 18.9569 6.80384 18.9358 6.87383 18.9211C6.94544 18.9049 7.02357 18.8918 7.1082 18.8821C7.19447 18.8723 7.29049 18.8658 7.39629 18.8625C7.50371 18.8577 7.62822 18.8536 7.76982 18.8503ZM12.4786 20.6375C12.4379 20.6016 12.3875 20.5667 12.3272 20.5325C12.267 20.4983 12.193 20.4682 12.1051 20.4421C12.0172 20.4145 11.9122 20.3925 11.7901 20.3762C11.6697 20.3583 11.5281 20.3494 11.3653 20.3494C11.2205 20.3494 11.0829 20.3526 10.9527 20.3591C10.8242 20.364 10.711 20.3803 10.6134 20.408C10.5157 20.434 10.4384 20.4763 10.3814 20.5349C10.3245 20.5935 10.296 20.6749 10.296 20.7791V21.0916C10.4392 21.1143 10.5971 21.1331 10.7696 21.1477C10.9422 21.1624 11.1342 21.1697 11.3458 21.1697C11.5151 21.1697 11.6949 21.164 11.8854 21.1526C12.0774 21.1396 12.2752 21.1143 12.4786 21.0769V20.6375ZM11.38 18.8503C11.4614 18.8503 11.5598 18.8544 11.6754 18.8625C11.791 18.8707 11.9114 18.8853 12.0367 18.9065C12.162 18.926 12.2857 18.9537 12.4078 18.9895C12.5315 19.0237 12.6422 19.0693 12.7398 19.1262C12.8391 19.1816 12.9189 19.2483 12.9791 19.3264C13.0393 19.4045 13.0694 19.4965 13.0694 19.6023V21.4919C12.9327 21.5196 12.7781 21.5432 12.6056 21.5627C12.4575 21.5806 12.2809 21.5969 12.0758 21.6116C11.8707 21.6262 11.642 21.6335 11.3897 21.6335C11.1391 21.6335 10.8722 21.623 10.589 21.6018C10.3074 21.5806 10.0128 21.544 9.70518 21.4919V20.613C9.70518 20.5186 9.72715 20.4364 9.77109 20.3665C9.81667 20.2948 9.87852 20.2338 9.95664 20.1833C10.0348 20.1329 10.1267 20.0914 10.2325 20.0588C10.3383 20.0263 10.4522 20.0002 10.5743 19.9807C10.6964 19.9612 10.8233 19.9482 10.9552 19.9417C11.087 19.9335 11.2188 19.9294 11.3507 19.9294C11.5509 19.9294 11.721 19.9425 11.8609 19.9685C12.0025 19.9929 12.1197 20.0198 12.2125 20.0491C12.3199 20.0849 12.4086 20.1248 12.4786 20.1687V19.7732C12.4786 19.7065 12.4623 19.6495 12.4298 19.6023C12.3972 19.5535 12.3533 19.5128 12.2979 19.4802C12.2426 19.446 12.1791 19.4192 12.1075 19.3997C12.0359 19.3785 11.961 19.3622 11.8829 19.3508C11.8048 19.3394 11.725 19.3321 11.6437 19.3289C11.5639 19.3256 11.489 19.324 11.419 19.324C11.3458 19.324 11.2677 19.3264 11.1847 19.3313C11.1017 19.3346 11.0187 19.3419 10.9356 19.3533C10.8543 19.3647 10.7753 19.3809 10.6988 19.4021C10.624 19.4216 10.5572 19.4485 10.4986 19.4827C10.44 19.5168 10.3928 19.5583 10.357 19.6072C10.3229 19.6544 10.3058 19.7113 10.3058 19.7781L9.70029 19.6218C9.70029 19.5128 9.72715 19.4184 9.78086 19.3386C9.83457 19.2572 9.90537 19.1881 9.99326 19.1311C10.0828 19.0741 10.1853 19.0278 10.3009 18.9919C10.4164 18.9545 10.5361 18.926 10.6598 18.9065C10.7851 18.8853 10.9096 18.8707 11.0333 18.8625C11.157 18.8544 11.2726 18.8503 11.38 18.8503ZM15.8202 18.8406C15.8104 18.9171 15.8048 18.9968 15.8031 19.0798C15.8015 19.1612 15.8007 19.2426 15.8007 19.324C15.8007 19.5421 15.8137 19.7406 15.8397 19.9197C15.8674 20.0987 15.913 20.2615 15.9765 20.408C16.0399 20.5544 16.1229 20.6871 16.2255 20.8059C16.3297 20.9231 16.4582 21.0297 16.6112 21.1257C16.7626 21.0297 16.8896 20.9231 16.9921 20.8059C17.0963 20.6871 17.1801 20.5544 17.2436 20.408C17.307 20.2615 17.3526 20.0987 17.3803 19.9197C17.4079 19.7406 17.4218 19.5421 17.4218 19.324C17.4218 19.2426 17.4202 19.1612 17.4169 19.0798C17.4136 18.9968 17.4071 18.9171 17.3974 18.8406C17.5422 18.8487 17.6708 18.8593 17.7831 18.8723C17.8954 18.8853 17.9914 18.8984 18.0712 18.9114C18.1623 18.9277 18.2437 18.9431 18.3153 18.9578V19.5242C18.2665 19.503 18.2209 19.4867 18.1786 19.4753C18.1379 19.4623 18.1021 19.4526 18.0712 19.446C18.0354 19.4395 18.0028 19.4347 17.9735 19.4314C17.967 19.6414 17.9524 19.8334 17.9296 20.0076C17.9084 20.1801 17.8751 20.338 17.8295 20.4812C17.7855 20.6244 17.7286 20.7555 17.6586 20.8743C17.5886 20.9915 17.504 21.1013 17.4047 21.2039C17.307 21.3064 17.1923 21.4032 17.0604 21.4944C16.9286 21.5839 16.7789 21.6726 16.6112 21.7605C16.4436 21.6726 16.2938 21.5839 16.162 21.4944C16.0302 21.4032 15.9146 21.3064 15.8153 21.2039C15.716 21.1013 15.6314 20.9915 15.5614 20.8743C15.4914 20.7555 15.4337 20.6244 15.3881 20.4812C15.3441 20.338 15.31 20.1801 15.2855 20.0076C15.2628 19.835 15.2489 19.643 15.244 19.4314C15.2147 19.4347 15.1822 19.4395 15.1464 19.446C15.1155 19.4526 15.0788 19.4623 15.0365 19.4753C14.9958 19.4867 14.9511 19.503 14.9022 19.5242V18.9578C14.9706 18.9431 15.0512 18.9277 15.1439 18.9114C15.2221 18.8984 15.3181 18.8853 15.432 18.8723C15.546 18.8593 15.6754 18.8487 15.8202 18.8406ZM21.945 18.8503C22.028 18.8503 22.1281 18.8544 22.2453 18.8625C22.3625 18.8707 22.4838 18.8853 22.6091 18.9065C22.736 18.926 22.8614 18.9545 22.9851 18.9919C23.1088 19.0278 23.2194 19.0741 23.3171 19.1311C23.4164 19.1881 23.4961 19.2572 23.5563 19.3386C23.6182 19.4184 23.6491 19.5128 23.6491 19.6218V20.447H20.8513V21.072C21.0482 21.0997 21.2378 21.1192 21.4201 21.1306C21.6024 21.1404 21.7774 21.1453 21.945 21.1453C22.2006 21.1453 22.4317 21.1355 22.6384 21.116C22.8467 21.0964 23.0266 21.0745 23.1779 21.05C23.3521 21.0224 23.5091 20.9906 23.6491 20.9548V21.4968C23.3399 21.5457 23.0412 21.5806 22.7531 21.6018C22.4667 21.623 22.1973 21.6335 21.945 21.6335C21.6911 21.6335 21.4608 21.627 21.2541 21.614C21.0474 21.5994 20.87 21.5831 20.7219 21.5652C20.5493 21.5457 20.3939 21.5229 20.2556 21.4968V19.6218C20.2556 19.5128 20.2824 19.4184 20.3361 19.3386C20.3898 19.2572 20.4615 19.1881 20.551 19.1311C20.6405 19.0741 20.743 19.0278 20.8586 18.9919C20.9758 18.9545 21.097 18.926 21.2224 18.9065C21.3477 18.8853 21.4722 18.8707 21.5959 18.8625C21.7212 18.8544 21.8376 18.8503 21.945 18.8503ZM20.8513 20.0564H23.0437V19.7732C23.0437 19.7065 23.0274 19.6495 22.9948 19.6023C22.9623 19.5535 22.9183 19.5128 22.863 19.4802C22.8093 19.4477 22.7458 19.4216 22.6726 19.4021C22.6009 19.3809 22.5261 19.3655 22.4479 19.3557C22.3698 19.3443 22.2909 19.337 22.2111 19.3337C22.133 19.3305 22.059 19.3289 21.989 19.3289C21.9157 19.3289 21.8368 19.3305 21.7521 19.3337C21.6691 19.337 21.5853 19.3443 21.5007 19.3557C21.416 19.3671 21.3347 19.3834 21.2565 19.4045C21.1784 19.4241 21.1092 19.4509 21.049 19.4851C20.9888 19.5177 20.9408 19.5583 20.905 19.6072C20.8692 19.6544 20.8513 19.7113 20.8513 19.7781V20.0564ZM26.3608 21.6335H25.8042V17.9666H26.3608V21.6335Z" fill="#2D3049"/>
<path d="M1 3.72603L9.24657 2L20.5616 3.72603L27.4657 2" stroke="#2D3049" stroke-width="2"/>
<path d="M1 30L9.24657 28.274L20.5616 30L27.4657 28.274" stroke="#2D3049" stroke-width="2"/>
</svg>
